<svg height="447pt" viewBox="-5 0 447 447.75221" width="447pt" xmlns="http://www.w3.org/2000/svg"><path d="m217.601562 95.753906-3.3125 3.308594v9.378906l13.65625 13.65625c1.5 1.5 2.34375 3.53125 2.34375 5.65625v16h-16v-12.691406l-10.457031-10.453125-21.542969 5.390625v9.753906h8v16h-12.6875l-3.3125 3.308594v23.746094l6.398438 3.199218 9.601562-9.597656v-4.65625h16v8c0 2.121094-.84375 4.15625-2.34375 5.65625l-13.65625 13.652344v17.378906l3.3125 3.3125h12.6875c2.671876-.003906 5.171876 1.332032 6.65625 3.558594l13.621094 20.441406h8.410156l11.3125-11.3125v-121.378906l-11.3125-11.308594zm7.03125 117.65625-8-8c-1.5-1.5-2.34375-3.535156-2.34375-5.65625v-24h16v20.6875l5.65625 5.65625zm0 0"/><path d="m254.289062 335.753906c13.253907 0 24-10.746094 24-24v-24h-48v24c0 13.253906 10.746094 24 24 24zm0 0"/><path d="m318.289062 151.753906v-16h8v-9.753906l-21.546874-5.390625-10.453126 10.453125v12.691406h-16v-16c0-2.125.84375-4.15625 2.34375-5.65625l13.65625-13.65625v-9.378906l-3.3125-3.308594h-17.375l-11.3125 11.308594v121.378906l11.3125 11.3125h8.40625l13.601563-20.441406c1.488281-2.230469 3.996094-3.570312 6.679687-3.558594h12.6875l3.3125-3.3125v-17.378906l-13.65625-13.652344c-1.5-1.5-2.34375-3.535156-2.34375-5.65625v-8h16v4.6875l9.597657 9.597656 6.402343-3.199218v-23.777344l-3.3125-3.308594zm-24 48c0 2.121094-.84375 4.15625-2.34375 5.65625l-8 8-11.3125-11.3125 5.65625-5.65625v-20.6875h16zm0 0"/><path d="m384.625 313.617188c70.636719-71.171876 71.28125-185.796876 1.449219-257.753907-69.832031-71.960937-184.421875-74.761719-257.683594-6.296875-37.246094 34.660156-58.3125 83.308594-58.101563 134.1875 0 1.988282-.742187 3.910156-2.082031 5.382813l-67.832031 74.617187h45.914062c4.417969 0 8 3.578125 8 8v56c.027344 22.078125 17.917969 39.972656 40 40h64c8.835938 0 16 7.160156 16 16v64h208v-110.449218c-8.445312 7.085937-17.460937 13.46875-26.953124 19.078124l-8.097657-13.796874c13.640625-8.003907 26.195313-17.726563 37.363281-28.921876zm13.664062-153.863282v16h-32v-16zm-23.289062-70.929687 8 13.855469-27.71875 16-8-13.855469zm-55.640625-49.777344 13.855469 8-16 27.707031-13.855469-8zm-73.070313-15.292969h16v32h-16zm-57.074218 15.292969 16 27.707031-13.855469 8-16-27.707031zm-55.640625 49.777344 27.722656 16-8 13.855469-27.722656-16zm-23.285157 70.929687h32v16h-32zm23.285157 86.925782-8-13.855469 27.722656-16 8 13.855469zm176.714843 41.074218h-16v24c0 22.089844-17.910156 40-40 40-22.09375 0-40-17.910156-40-40v-24h-16v-16h112zm35.574219-96.800781-11.574219 5.742187v19.058594c0 2.121094-.84375 4.15625-2.34375 5.65625l-8 8c-1.5 1.5-3.535156 2.339844-5.65625 2.34375h-11.722656l-13.597656 20.4375c-1.488281 2.234375-3.996094 3.570313-6.679688 3.5625h-16c-2.121093-.003906-4.15625-.84375-5.65625-2.34375l-10.34375-10.347656-10.34375 10.347656c-1.5 1.5-3.535156 2.339844-5.65625 2.34375h-16c-2.675781 0-5.171874-1.335937-6.65625-3.5625l-13.625-20.4375h-11.71875c-2.121093-.003906-4.15625-.84375-5.65625-2.34375l-8-8c-1.5-1.5-2.34375-3.535156-2.34375-5.65625v-19.058594l-11.578124-5.742187c-2.722657-1.363281-4.441407-4.15625-4.421876-7.199219v-32c0-2.125.84375-4.15625 2.34375-5.65625l5.65625-5.65625v-20.6875c0-3.671875 2.5-6.875 6.0625-7.761718l25.9375-6.488282v-9.75c0-2.125.84375-4.15625 2.34375-5.65625l8-8c1.5-1.5 3.535157-2.34375 5.65625-2.34375h24c2.121094 0 4.15625.84375 5.65625 2.34375l10.34375 10.34375 10.34375-10.34375c1.5-1.5 3.535157-2.34375 5.65625-2.34375h24c2.121094 0 4.15625.84375 5.65625 2.34375l8 8c1.5 1.5 2.34375 3.53125 2.34375 5.65625v9.75l25.933594 6.488282c3.5625.886718 6.0625 4.089843 6.066406 7.761718v20.6875l5.65625 5.65625c1.5 1.5 2.34375 3.53125 2.34375 5.65625v32c.015626 3.042969-1.699218 5.835938-4.425781 7.199219zm29.136719 55.765625-27.71875-16 8-13.855469 27.71875 16zm0 0"/></svg>